# xmcd
#
# Track frame offsets:
#	150
#	25125
#	39000
#	65062
#	83587
#	103012
#	120337
#
# Disc length: 1945 seconds
#
# Revision: 3
# Processed by: cddbd v1.5.1PL2 Copyright (c) Steve Scherf et al.
# Submitted via: audiograbber 1.83.01
#
DISCID=49079707
DTITLE=Windham Hill - Windham Hill 25 Years Sampler
DYEAR=2001
DGENRE=New Age
TTITLE0=W.G.Snuffy Walden - Angela Smiled
TTITLE1=Jim Brickman - Coming Home
TTITLE2=Will Ackerman - Briars above the Well
TTITLE3=Paul Schwartz - Veni Creator Spiritus
TTITLE4=Alex de Grassi - Slow Circle
TTITLE5=Liz Story - The Sounding Joy
TTITLE6=Tuck and Patti - Mad Mad Me
EXTD=
EXTT0=W.G. Snuffy Walden
EXTT1=Jim Brickman
EXTT2=Will Ackerman
EXTT3=Paul Schwartz
EXTT4=Alex de Grassi
EXTT5=Liz Story
EXTT6=Tuck and Patti
PLAYORDER=
